<?xml version="1.0" standalone="no"?>
<!DOCTYPE svg PUBLIC "-//W3C//DTD SVG 1.1//EN" "http://www.w3.org/Graphics/SVG/1.1/DTD/svg11.dtd">
<svg width="100%" height="100%" version="1.1" xmlns="http://www.w3.org/2000/svg">
<defs>
  <radialGradient id="basegradient" cx="50%" cy="65%" r="50%" fx="50%" fy="65%">
    <stop offset="10%" stop-color="#ff0" />
    <stop offset="60%" stop-color="#f00" />
    <stop offset="99%" stop-color="#00f" />
  </radialGradient>
</defs>
<polygon points="256,0 0,443.405006737633 512,443.405006737633" style="fill: url(#basegradient); stroke-width: 0;" /><polygon points="256,0 0,443.405006737633 512,443.405006737633" style="fill: #000; stroke-width: 0;">
  <animate attributeType="CSS" attributeName="opacity"
  values="1;0;1" keyTimes="0;.5;1" dur="20s" repeatCount="indefinite" />
</polygon>
<g style="fill: #fff; stroke-width: 0;"><polygon points="256,443.405006737633 384,221.702503368816 128,221.702503368816" /><polygon points="256,221.702503368816 192,110.851251684408 320,110.851251684408" /><polygon points="256,110.851251684408 224,55.4256258422041 288,55.4256258422041" /><polygon points="256,55.4256258422041 240,27.712812921102 272,27.712812921102" /><polygon points="256,27.712812921102 248,13.856406460551 264,13.856406460551" /><polygon points="256,13.856406460551 252,6.92820323027551 260,6.92820323027551" /><polygon points="248,27.712812921102 244,20.7846096908265 252,20.7846096908265" /><polygon points="264,27.712812921102 260,20.7846096908265 268,20.7846096908265" /><polygon points="240,55.4256258422041 232,41.5692193816531 248,41.5692193816531" /><polygon points="240,41.5692193816531 236,34.6410161513775 244,34.6410161513775" /><polygon points="232,55.4256258422041 228,48.4974226119286 236,48.4974226119286" /><polygon points="248,55.4256258422041 244,48.4974226119286 252,48.4974226119286" /><polygon points="272,55.4256258422041 264,41.5692193816531 280,41.5692193816531" /><polygon points="272,41.5692193816531 268,34.6410161513775 276,34.6410161513775" /><polygon points="264,55.4256258422041 260,48.4974226119286 268,48.4974226119286" /><polygon points="280,55.4256258422041 276,48.4974226119286 284,48.4974226119286" /><polygon points="224,110.851251684408 208,83.1384387633061 240,83.1384387633061" /><polygon points="224,83.1384387633061 216,69.2820323027551 232,69.2820323027551" /><polygon points="224,69.2820323027551 220,62.3538290724796 228,62.3538290724796" /><polygon points="216,83.1384387633061 212,76.2102355330306 220,76.2102355330306" /><polygon points="232,83.1384387633061 228,76.2102355330306 236,76.2102355330306" /><polygon points="208,110.851251684408 200,96.9948452238571 216,96.9948452238571" /><polygon points="208,96.9948452238571 204,90.0666419935816 212,90.0666419935816" /><polygon points="200,110.851251684408 196,103.923048454133 204,103.923048454133" /><polygon points="216,110.851251684408 212,103.923048454133 220,103.923048454133" /><polygon points="240,110.851251684408 232,96.9948452238571 248,96.9948452238571" /><polygon points="240,96.9948452238571 236,90.0666419935816 244,90.0666419935816" /><polygon points="232,110.851251684408 228,103.923048454133 236,103.923048454133" /><polygon points="248,110.851251684408 244,103.923048454133 252,103.923048454133" /><polygon points="288,110.851251684408 272,83.1384387633061 304,83.1384387633061" /><polygon points="288,83.1384387633061 280,69.2820323027551 296,69.2820323027551" /><polygon points="288,69.2820323027551 284,62.3538290724796 292,62.3538290724796" /><polygon points="280,83.1384387633061 276,76.2102355330306 284,76.2102355330306" /><polygon points="296,83.1384387633061 292,76.2102355330306 300,76.2102355330306" /><polygon points="272,110.851251684408 264,96.9948452238571 280,96.9948452238571" /><polygon points="272,96.9948452238571 268,90.0666419935816 276,90.0666419935816" /><polygon points="264,110.851251684408 260,103.923048454133 268,103.923048454133" /><polygon points="280,110.851251684408 276,103.923048454133 284,103.923048454133" /><polygon points="304,110.851251684408 296,96.9948452238571 312,96.9948452238571" /><polygon points="304,96.9948452238571 300,90.0666419935816 308,90.0666419935816" /><polygon points="296,110.851251684408 292,103.923048454133 300,103.923048454133" /><polygon points="312,110.851251684408 308,103.923048454133 316,103.923048454133" /><polygon points="192,221.702503368816 160,166.276877526612 224,166.276877526612" /><polygon points="192,166.276877526612 176,138.56406460551 208,138.56406460551" /><polygon points="192,138.56406460551 184,124.707658144959 200,124.707658144959" /><polygon points="192,124.707658144959 188,117.779454914684 196,117.779454914684" /><polygon points="184,138.56406460551 180,131.635861375235 188,131.635861375235" /><polygon points="200,138.56406460551 196,131.635861375235 204,131.635861375235" /><polygon points="176,166.276877526612 168,152.420471066061 184,152.420471066061" /><polygon points="176,152.420471066061 172,145.492267835786 180,145.492267835786" /><polygon points="168,166.276877526612 164,159.348674296337 172,159.348674296337" /><polygon points="184,166.276877526612 180,159.348674296337 188,159.348674296337" /><polygon points="208,166.276877526612 200,152.420471066061 216,152.420471066061" /><polygon points="208,152.420471066061 204,145.492267835786 212,145.492267835786" /><polygon points="200,166.276877526612 196,159.348674296337 204,159.348674296337" /><polygon points="216,166.276877526612 212,159.348674296337 220,159.348674296337" /><polygon points="160,221.702503368816 144,193.989690447714 176,193.989690447714" /><polygon points="160,193.989690447714 152,180.133283987163 168,180.133283987163" /><polygon points="160,180.133283987163 156,173.205080756888 164,173.205080756888" /><polygon points="152,193.989690447714 148,187.061487217439 156,187.061487217439" /><polygon points="168,193.989690447714 164,187.061487217439 172,187.061487217439" /><polygon points="144,221.702503368816 136,207.846096908265 152,207.846096908265" /><polygon points="144,207.846096908265 140,200.91789367799 148,200.91789367799" /><polygon points="136,221.702503368816 132,214.774300138541 140,214.774300138541" /><polygon points="152,221.702503368816 148,214.774300138541 156,214.774300138541" /><polygon points="176,221.702503368816 168,207.846096908265 184,207.846096908265" /><polygon points="176,207.846096908265 172,200.91789367799 180,200.91789367799" /><polygon points="168,221.702503368816 164,214.774300138541 172,214.774300138541" /><polygon points="184,221.702503368816 180,214.774300138541 188,214.774300138541" /><polygon points="224,221.702503368816 208,193.989690447714 240,193.989690447714" /><polygon points="224,193.989690447714 216,180.133283987163 232,180.133283987163" /><polygon points="224,180.133283987163 220,173.205080756888 228,173.205080756888" /><polygon points="216,193.989690447714 212,187.061487217439 220,187.061487217439" /><polygon points="232,193.989690447714 228,187.061487217439 236,187.061487217439" /><polygon points="208,221.702503368816 200,207.846096908265 216,207.846096908265" /><polygon points="208,207.846096908265 204,200.91789367799 212,200.91789367799" /><polygon points="200,221.702503368816 196,214.774300138541 204,214.774300138541" /><polygon points="216,221.702503368816 212,214.774300138541 220,214.774300138541" /><polygon points="240,221.702503368816 232,207.846096908265 248,207.846096908265" /><polygon points="240,207.846096908265 236,200.91789367799 244,200.91789367799" /><polygon points="232,221.702503368816 228,214.774300138541 236,214.774300138541" /><polygon points="248,221.702503368816 244,214.774300138541 252,214.774300138541" /><polygon points="320,221.702503368816 288,166.276877526612 352,166.276877526612" /><polygon points="320,166.276877526612 304,138.56406460551 336,138.56406460551" /><polygon points="320,138.56406460551 312,124.707658144959 328,124.707658144959" /><polygon points="320,124.707658144959 316,117.779454914684 324,117.779454914684" /><polygon points="312,138.56406460551 308,131.635861375235 316,131.635861375235" /><polygon points="328,138.56406460551 324,131.635861375235 332,131.635861375235" /><polygon points="304,166.276877526612 296,152.420471066061 312,152.420471066061" /><polygon points="304,152.420471066061 300,145.492267835786 308,145.492267835786" /><polygon points="296,166.276877526612 292,159.348674296337 300,159.348674296337" /><polygon points="312,166.276877526612 308,159.348674296337 316,159.348674296337" /><polygon points="336,166.276877526612 328,152.420471066061 344,152.420471066061" /><polygon points="336,152.420471066061 332,145.492267835786 340,145.492267835786" /><polygon points="328,166.276877526612 324,159.348674296337 332,159.348674296337" /><polygon points="344,166.276877526612 340,159.348674296337 348,159.348674296337" /><polygon points="288,221.702503368816 272,193.989690447714 304,193.989690447714" /><polygon points="288,193.989690447714 280,180.133283987163 296,180.133283987163" /><polygon points="288,180.133283987163 284,173.205080756888 292,173.205080756888" /><polygon points="280,193.989690447714 276,187.061487217439 284,187.061487217439" /><polygon points="296,193.989690447714 292,187.061487217439 300,187.061487217439" /><polygon points="272,221.702503368816 264,207.846096908265 280,207.846096908265" /><polygon points="272,207.846096908265 268,200.91789367799 276,200.91789367799" /><polygon points="264,221.702503368816 260,214.774300138541 268,214.774300138541" /><polygon points="280,221.702503368816 276,214.774300138541 284,214.774300138541" /><polygon points="304,221.702503368816 296,207.846096908265 312,207.846096908265" /><polygon points="304,207.846096908265 300,200.91789367799 308,200.91789367799" /><polygon points="296,221.702503368816 292,214.774300138541 300,214.774300138541" /><polygon points="312,221.702503368816 308,214.774300138541 316,214.774300138541" /><polygon points="352,221.702503368816 336,193.989690447714 368,193.989690447714" /><polygon points="352,193.989690447714 344,180.133283987163 360,180.133283987163" /><polygon points="352,180.133283987163 348,173.205080756888 356,173.205080756888" /><polygon points="344,193.989690447714 340,187.061487217439 348,187.061487217439" /><polygon points="360,193.989690447714 356,187.061487217439 364,187.061487217439" /><polygon points="336,221.702503368816 328,207.846096908265 344,207.846096908265" /><polygon points="336,207.846096908265 332,200.91789367799 340,200.91789367799" /><polygon points="328,221.702503368816 324,214.774300138541 332,214.774300138541" /><polygon points="344,221.702503368816 340,214.774300138541 348,214.774300138541" /><polygon points="368,221.702503368816 360,207.846096908265 376,207.846096908265" /><polygon points="368,207.846096908265 364,200.91789367799 372,200.91789367799" /><polygon points="360,221.702503368816 356,214.774300138541 364,214.774300138541" /><polygon points="376,221.702503368816 372,214.774300138541 380,214.774300138541" /><polygon points="384,443.405006737633 320,332.553755053224 448,332.553755053224" /><polygon points="384,332.553755053224 352,277.12812921102 416,277.12812921102" /><polygon points="384,277.12812921102 368,249.415316289918 400,249.415316289918" /><polygon points="384,249.415316289918 376,235.558909829367 392,235.558909829367" /><polygon points="384,235.558909829367 380,228.630706599092 388,228.630706599092" /><polygon points="376,249.415316289918 372,242.487113059643 380,242.487113059643" /><polygon points="392,249.415316289918 388,242.487113059643 396,242.487113059643" /><polygon points="368,277.12812921102 360,263.271722750469 376,263.271722750469" /><polygon points="368,263.271722750469 364,256.343519520194 372,256.343519520194" /><polygon points="360,277.12812921102 356,270.199925980745 364,270.199925980745" /><polygon points="376,277.12812921102 372,270.199925980745 380,270.199925980745" /><polygon points="400,277.12812921102 392,263.271722750469 408,263.271722750469" /><polygon points="400,263.271722750469 396,256.343519520194 404,256.343519520194" /><polygon points="392,277.12812921102 388,270.199925980745 396,270.199925980745" /><polygon points="408,277.12812921102 404,270.199925980745 412,270.199925980745" /><polygon points="352,332.553755053224 336,304.840942132122 368,304.840942132122" /><polygon points="352,304.840942132122 344,290.984535671571 360,290.984535671571" /><polygon points="352,290.984535671571 348,284.056332441296 356,284.056332441296" /><polygon points="344,304.840942132122 340,297.912738901847 348,297.912738901847" /><polygon points="360,304.840942132122 356,297.912738901847 364,297.912738901847" /><polygon points="336,332.553755053224 328,318.697348592673 344,318.697348592673" /><polygon points="336,318.697348592673 332,311.769145362398 340,311.769145362398" /><polygon points="328,332.553755053224 324,325.625551822949 332,325.625551822949" /><polygon points="344,332.553755053224 340,325.625551822949 348,325.625551822949" /><polygon points="368,332.553755053224 360,318.697348592673 376,318.697348592673" /><polygon points="368,318.697348592673 364,311.769145362398 372,311.769145362398" /><polygon points="360,332.553755053224 356,325.625551822949 364,325.625551822949" /><polygon points="376,332.553755053224 372,325.625551822949 380,325.625551822949" /><polygon points="416,332.553755053224 400,304.840942132122 432,304.840942132122" /><polygon points="416,304.840942132122 408,290.984535671571 424,290.984535671571" /><polygon points="416,290.984535671571 412,284.056332441296 420,284.056332441296" /><polygon points="408,304.840942132122 404,297.912738901847 412,297.912738901847" /><polygon points="424,304.840942132122 420,297.912738901847 428,297.912738901847" /><polygon points="400,332.553755053224 392,318.697348592673 408,318.697348592673" /><polygon points="400,318.697348592673 396,311.769145362398 404,311.769145362398" /><polygon points="392,332.553755053224 388,325.625551822949 396,325.625551822949" /><polygon points="408,332.553755053224 404,325.625551822949 412,325.625551822949" /><polygon points="432,332.553755053224 424,318.697348592673 440,318.697348592673" /><polygon points="432,318.697348592673 428,311.769145362398 436,311.769145362398" /><polygon points="424,332.553755053224 420,325.625551822949 428,325.625551822949" /><polygon points="440,332.553755053224 436,325.625551822949 444,325.625551822949" /><polygon points="320,443.405006737633 288,387.979380895429 352,387.979380895429" /><polygon points="320,387.979380895429 304,360.266567974326 336,360.266567974326" /><polygon points="320,360.266567974326 312,346.410161513775 328,346.410161513775" /><polygon points="320,346.410161513775 316,339.4819582835 324,339.4819582835" /><polygon points="312,360.266567974326 308,353.338364744051 316,353.338364744051" /><polygon points="328,360.266567974326 324,353.338364744051 332,353.338364744051" /><polygon points="304,387.979380895429 296,374.122974434878 312,374.122974434878" /><polygon points="304,374.122974434878 300,367.194771204602 308,367.194771204602" /><polygon points="296,387.979380895429 292,381.051177665153 300,381.051177665153" /><polygon points="312,387.979380895429 308,381.051177665153 316,381.051177665153" /><polygon points="336,387.979380895429 328,374.122974434878 344,374.122974434878" /><polygon points="336,374.122974434878 332,367.194771204602 340,367.194771204602" /><polygon points="328,387.979380895429 324,381.051177665153 332,381.051177665153" /><polygon points="344,387.979380895429 340,381.051177665153 348,381.051177665153" /><polygon points="288,443.405006737633 272,415.692193816531 304,415.692193816531" /><polygon points="288,415.692193816531 280,401.83578735598 296,401.83578735598" /><polygon points="288,401.83578735598 284,394.907584125704 292,394.907584125704" /><polygon points="280,415.692193816531 276,408.763990586255 284,408.763990586255" /><polygon points="296,415.692193816531 292,408.763990586255 300,408.763990586255" /><polygon points="272,443.405006737633 264,429.548600277082 280,429.548600277082" /><polygon points="272,429.548600277082 268,422.620397046806 276,422.620397046806" /><polygon points="264,443.405006737633 260,436.476803507357 268,436.476803507357" /><polygon points="280,443.405006737633 276,436.476803507357 284,436.476803507357" /><polygon points="304,443.405006737633 296,429.548600277082 312,429.548600277082" /><polygon points="304,429.548600277082 300,422.620397046806 308,422.620397046806" /><polygon points="296,443.405006737633 292,436.476803507357 300,436.476803507357" /><polygon points="312,443.405006737633 308,436.476803507357 316,436.476803507357" /><polygon points="352,443.405006737633 336,415.692193816531 368,415.692193816531" /><polygon points="352,415.692193816531 344,401.83578735598 360,401.83578735598" /><polygon points="352,401.83578735598 348,394.907584125704 356,394.907584125704" /><polygon points="344,415.692193816531 340,408.763990586255 348,408.763990586255" /><polygon points="360,415.692193816531 356,408.763990586255 364,408.763990586255" /><polygon points="336,443.405006737633 328,429.548600277082 344,429.548600277082" /><polygon points="336,429.548600277082 332,422.620397046806 340,422.620397046806" /><polygon points="328,443.405006737633 324,436.476803507357 332,436.476803507357" /><polygon points="344,443.405006737633 340,436.476803507357 348,436.476803507357" /><polygon points="368,443.405006737633 360,429.548600277082 376,429.548600277082" /><polygon points="368,429.548600277082 364,422.620397046806 372,422.620397046806" /><polygon points="360,443.405006737633 356,436.476803507357 364,436.476803507357" /><polygon points="376,443.405006737633 372,436.476803507357 380,436.476803507357" /><polygon points="448,443.405006737633 416,387.979380895429 480,387.979380895429" /><polygon points="448,387.979380895429 432,360.266567974326 464,360.266567974326" /><polygon points="448,360.266567974326 440,346.410161513775 456,346.410161513775" /><polygon points="448,346.410161513775 444,339.4819582835 452,339.4819582835" /><polygon points="440,360.266567974326 436,353.338364744051 444,353.338364744051" /><polygon points="456,360.266567974326 452,353.338364744051 460,353.338364744051" /><polygon points="432,387.979380895429 424,374.122974434878 440,374.122974434878" /><polygon points="432,374.122974434878 428,367.194771204602 436,367.194771204602" /><polygon points="424,387.979380895429 420,381.051177665153 428,381.051177665153" /><polygon points="440,387.979380895429 436,381.051177665153 444,381.051177665153" /><polygon points="464,387.979380895429 456,374.122974434878 472,374.122974434878" /><polygon points="464,374.122974434878 460,367.194771204602 468,367.194771204602" /><polygon points="456,387.979380895429 452,381.051177665153 460,381.051177665153" /><polygon points="472,387.979380895429 468,381.051177665153 476,381.051177665153" /><polygon points="416,443.405006737633 400,415.692193816531 432,415.692193816531" /><polygon points="416,415.692193816531 408,401.83578735598 424,401.83578735598" /><polygon points="416,401.83578735598 412,394.907584125704 420,394.907584125704" /><polygon points="408,415.692193816531 404,408.763990586255 412,408.763990586255" /><polygon points="424,415.692193816531 420,408.763990586255 428,408.763990586255" /><polygon points="400,443.405006737633 392,429.548600277082 408,429.548600277082" /><polygon points="400,429.548600277082 396,422.620397046806 404,422.620397046806" /><polygon points="392,443.405006737633 388,436.476803507357 396,436.476803507357" /><polygon points="408,443.405006737633 404,436.476803507357 412,436.476803507357" /><polygon points="432,443.405006737633 424,429.548600277082 440,429.548600277082" /><polygon points="432,429.548600277082 428,422.620397046806 436,422.620397046806" /><polygon points="424,443.405006737633 420,436.476803507357 428,436.476803507357" /><polygon points="440,443.405006737633 436,436.476803507357 444,436.476803507357" /><polygon points="480,443.405006737633 464,415.692193816531 496,415.692193816531" /><polygon points="480,415.692193816531 472,401.83578735598 488,401.83578735598" /><polygon points="480,401.83578735598 476,394.907584125704 484,394.907584125704" /><polygon points="472,415.692193816531 468,408.763990586255 476,408.763990586255" /><polygon points="488,415.692193816531 484,408.763990586255 492,408.763990586255" /><polygon points="464,443.405006737633 456,429.548600277082 472,429.548600277082" /><polygon points="464,429.548600277082 460,422.620397046806 468,422.620397046806" /><polygon points="456,443.405006737633 452,436.476803507357 460,436.476803507357" /><polygon points="472,443.405006737633 468,436.476803507357 476,436.476803507357" /><polygon points="496,443.405006737633 488,429.548600277082 504,429.548600277082" /><polygon points="496,429.548600277082 492,422.620397046806 500,422.620397046806" /><polygon points="488,443.405006737633 484,436.476803507357 492,436.476803507357" /><polygon points="504,443.405006737633 500,436.476803507357 508,436.476803507357" /><polygon points="128,443.405006737633 64,332.553755053224 192,332.553755053224" /><polygon points="128,332.553755053224 96,277.12812921102 160,277.12812921102" /><polygon points="128,277.12812921102 112,249.415316289918 144,249.415316289918" /><polygon points="128,249.415316289918 120,235.558909829367 136,235.558909829367" /><polygon points="128,235.558909829367 124,228.630706599092 132,228.630706599092" /><polygon points="120,249.415316289918 116,242.487113059643 124,242.487113059643" /><polygon points="136,249.415316289918 132,242.487113059643 140,242.487113059643" /><polygon points="112,277.12812921102 104,263.271722750469 120,263.271722750469" /><polygon points="112,263.271722750469 108,256.343519520194 116,256.343519520194" /><polygon points="104,277.12812921102 100,270.199925980745 108,270.199925980745" /><polygon points="120,277.12812921102 116,270.199925980745 124,270.199925980745" /><polygon points="144,277.12812921102 136,263.271722750469 152,263.271722750469" /><polygon points="144,263.271722750469 140,256.343519520194 148,256.343519520194" /><polygon points="136,277.12812921102 132,270.199925980745 140,270.199925980745" /><polygon points="152,277.12812921102 148,270.199925980745 156,270.199925980745" /><polygon points="96,332.553755053224 80,304.840942132122 112,304.840942132122" /><polygon points="96,304.840942132122 88,290.984535671571 104,290.984535671571" /><polygon points="96,290.984535671571 92,284.056332441296 100,284.056332441296" /><polygon points="88,304.840942132122 84,297.912738901847 92,297.912738901847" /><polygon points="104,304.840942132122 100,297.912738901847 108,297.912738901847" /><polygon points="80,332.553755053224 72,318.697348592673 88,318.697348592673" /><polygon points="80,318.697348592673 76,311.769145362398 84,311.769145362398" /><polygon points="72,332.553755053224 68,325.625551822949 76,325.625551822949" /><polygon points="88,332.553755053224 84,325.625551822949 92,325.625551822949" /><polygon points="112,332.553755053224 104,318.697348592673 120,318.697348592673" /><polygon points="112,318.697348592673 108,311.769145362398 116,311.769145362398" /><polygon points="104,332.553755053224 100,325.625551822949 108,325.625551822949" /><polygon points="120,332.553755053224 116,325.625551822949 124,325.625551822949" /><polygon points="160,332.553755053224 144,304.840942132122 176,304.840942132122" /><polygon points="160,304.840942132122 152,290.984535671571 168,290.984535671571" /><polygon points="160,290.984535671571 156,284.056332441296 164,284.056332441296" /><polygon points="152,304.840942132122 148,297.912738901847 156,297.912738901847" /><polygon points="168,304.840942132122 164,297.912738901847 172,297.912738901847" /><polygon points="144,332.553755053224 136,318.697348592673 152,318.697348592673" /><polygon points="144,318.697348592673 140,311.769145362398 148,311.769145362398" /><polygon points="136,332.553755053224 132,325.625551822949 140,325.625551822949" /><polygon points="152,332.553755053224 148,325.625551822949 156,325.625551822949" /><polygon points="176,332.553755053224 168,318.697348592673 184,318.697348592673" /><polygon points="176,318.697348592673 172,311.769145362398 180,311.769145362398" /><polygon points="168,332.553755053224 164,325.625551822949 172,325.625551822949" /><polygon points="184,332.553755053224 180,325.625551822949 188,325.625551822949" /><polygon points="64,443.405006737633 32,387.979380895429 96,387.979380895429" /><polygon points="64,387.979380895429 48,360.266567974326 80,360.266567974326" /><polygon points="64,360.266567974326 56,346.410161513775 72,346.410161513775" /><polygon points="64,346.410161513775 60,339.4819582835 68,339.4819582835" /><polygon points="56,360.266567974326 52,353.338364744051 60,353.338364744051" /><polygon points="72,360.266567974326 68,353.338364744051 76,353.338364744051" /><polygon points="48,387.979380895429 40,374.122974434878 56,374.122974434878" /><polygon points="48,374.122974434878 44,367.194771204602 52,367.194771204602" /><polygon points="40,387.979380895429 36,381.051177665153 44,381.051177665153" /><polygon points="56,387.979380895429 52,381.051177665153 60,381.051177665153" /><polygon points="80,387.979380895429 72,374.122974434878 88,374.122974434878" /><polygon points="80,374.122974434878 76,367.194771204602 84,367.194771204602" /><polygon points="72,387.979380895429 68,381.051177665153 76,381.051177665153" /><polygon points="88,387.979380895429 84,381.051177665153 92,381.051177665153" /><polygon points="32,443.405006737633 16,415.692193816531 48,415.692193816531" /><polygon points="32,415.692193816531 24,401.83578735598 40,401.83578735598" /><polygon points="32,401.83578735598 28,394.907584125704 36,394.907584125704" /><polygon points="24,415.692193816531 20,408.763990586255 28,408.763990586255" /><polygon points="40,415.692193816531 36,408.763990586255 44,408.763990586255" /><polygon points="16,443.405006737633 8,429.548600277082 24,429.548600277082" /><polygon points="16,429.548600277082 12,422.620397046806 20,422.620397046806" /><polygon points="8,443.405006737633 4,436.476803507357 12,436.476803507357" /><polygon points="24,443.405006737633 20,436.476803507357 28,436.476803507357" /><polygon points="48,443.405006737633 40,429.548600277082 56,429.548600277082" /><polygon points="48,429.548600277082 44,422.620397046806 52,422.620397046806" /><polygon points="40,443.405006737633 36,436.476803507357 44,436.476803507357" /><polygon points="56,443.405006737633 52,436.476803507357 60,436.476803507357" /><polygon points="96,443.405006737633 80,415.692193816531 112,415.692193816531" /><polygon points="96,415.692193816531 88,401.83578735598 104,401.83578735598" /><polygon points="96,401.83578735598 92,394.907584125704 100,394.907584125704" /><polygon points="88,415.692193816531 84,408.763990586255 92,408.763990586255" /><polygon points="104,415.692193816531 100,408.763990586255 108,408.763990586255" /><polygon points="80,443.405006737633 72,429.548600277082 88,429.548600277082" /><polygon points="80,429.548600277082 76,422.620397046806 84,422.620397046806" /><polygon points="72,443.405006737633 68,436.476803507357 76,436.476803507357" /><polygon points="88,443.405006737633 84,436.476803507357 92,436.476803507357" /><polygon points="112,443.405006737633 104,429.548600277082 120,429.548600277082" /><polygon points="112,429.548600277082 108,422.620397046806 116,422.620397046806" /><polygon points="104,443.405006737633 100,436.476803507357 108,436.476803507357" /><polygon points="120,443.405006737633 116,436.476803507357 124,436.476803507357" /><polygon points="192,443.405006737633 160,387.979380895429 224,387.979380895429" /><polygon points="192,387.979380895429 176,360.266567974326 208,360.266567974326" /><polygon points="192,360.266567974326 184,346.410161513775 200,346.410161513775" /><polygon points="192,346.410161513775 188,339.4819582835 196,339.4819582835" /><polygon points="184,360.266567974326 180,353.338364744051 188,353.338364744051" /><polygon points="200,360.266567974326 196,353.338364744051 204,353.338364744051" /><polygon points="176,387.979380895429 168,374.122974434878 184,374.122974434878" /><polygon points="176,374.122974434878 172,367.194771204602 180,367.194771204602" /><polygon points="168,387.979380895429 164,381.051177665153 172,381.051177665153" /><polygon points="184,387.979380895429 180,381.051177665153 188,381.051177665153" /><polygon points="208,387.979380895429 200,374.122974434878 216,374.122974434878" /><polygon points="208,374.122974434878 204,367.194771204602 212,367.194771204602" /><polygon points="200,387.979380895429 196,381.051177665153 204,381.051177665153" /><polygon points="216,387.979380895429 212,381.051177665153 220,381.051177665153" /><polygon points="160,443.405006737633 144,415.692193816531 176,415.692193816531" /><polygon points="160,415.692193816531 152,401.83578735598 168,401.83578735598" /><polygon points="160,401.83578735598 156,394.907584125704 164,394.907584125704" /><polygon points="152,415.692193816531 148,408.763990586255 156,408.763990586255" /><polygon points="168,415.692193816531 164,408.763990586255 172,408.763990586255" /><polygon points="144,443.405006737633 136,429.548600277082 152,429.548600277082" /><polygon points="144,429.548600277082 140,422.620397046806 148,422.620397046806" /><polygon points="136,443.405006737633 132,436.476803507357 140,436.476803507357" /><polygon points="152,443.405006737633 148,436.476803507357 156,436.476803507357" /><polygon points="176,443.405006737633 168,429.548600277082 184,429.548600277082" /><polygon points="176,429.548600277082 172,422.620397046806 180,422.620397046806" /><polygon points="168,443.405006737633 164,436.476803507357 172,436.476803507357" /><polygon points="184,443.405006737633 180,436.476803507357 188,436.476803507357" /><polygon points="224,443.405006737633 208,415.692193816531 240,415.692193816531" /><polygon points="224,415.692193816531 216,401.83578735598 232,401.83578735598" /><polygon points="224,401.83578735598 220,394.907584125704 228,394.907584125704" /><polygon points="216,415.692193816531 212,408.763990586255 220,408.763990586255" /><polygon points="232,415.692193816531 228,408.763990586255 236,408.763990586255" /><polygon points="208,443.405006737633 200,429.548600277082 216,429.548600277082" /><polygon points="208,429.548600277082 204,422.620397046806 212,422.620397046806" /><polygon points="200,443.405006737633 196,436.476803507357 204,436.476803507357" /><polygon points="216,443.405006737633 212,436.476803507357 220,436.476803507357" /><polygon points="240,443.405006737633 232,429.548600277082 248,429.548600277082" /><polygon points="240,429.548600277082 236,422.620397046806 244,422.620397046806" /><polygon points="232,443.405006737633 228,436.476803507357 236,436.476803507357" /><polygon points="248,443.405006737633 244,436.476803507357 252,436.476803507357" /></g></svg>